<?xml version="1.0"?>
<svg xmlns="http://www.w3.org/2000/svg" xmlns:xlink="http://www.w3.org/1999/xlink" version="1.1" id="Capa_1" x="0px" y="0px" viewBox="0 0 512 512" style="enable-background:new 0 0 512 512;" xml:space="preserve" width="512px" height="512px"><g><g>
	<g>
		<g>
			<path d="M234.667,192c0-23.531-19.136-42.667-42.667-42.667S149.333,168.469,149.333,192c0,5.888,4.779,10.667,10.667,10.667     s10.667-4.779,10.667-10.667c0-11.755,9.557-21.333,21.333-21.333s21.333,9.579,21.333,21.333s-9.557,21.333-21.333,21.333     c-5.888,0-10.667,4.779-10.667,10.667s4.779,10.667,10.667,10.667c11.776,0,21.333,9.579,21.333,21.333     c0,11.755-9.557,21.333-21.333,21.333s-21.333-9.579-21.333-21.333c0-5.888-4.779-10.667-10.667-10.667     s-10.667,4.779-10.667,10.667c0,23.531,19.136,42.667,42.667,42.667c23.531,0,42.667-19.136,42.667-42.667     c0-12.736-5.611-24.171-14.485-32C229.056,216.171,234.667,204.736,234.667,192z" data-original="#000000" class="active-path" data-old_color="#000000" fill="#00AF80"/>
			<path d="M309.333,149.333h-42.667c-5.888,0-10.667,4.779-10.667,10.667v128c0,5.888,4.779,10.667,10.667,10.667h42.667     c29.419,0,53.333-23.936,53.333-53.333v-42.667C362.667,173.269,338.752,149.333,309.333,149.333z M341.333,245.333     c0,17.643-14.357,32-32,32h-32V170.667h32c17.643,0,32,14.357,32,32V245.333z" data-original="#000000" class="active-path" data-old_color="#000000" fill="#00AF80"/>
			<path d="M480,42.667H32c-17.643,0-32,14.357-32,32v298.667c0,17.643,14.357,32,32,32h181.333v22.976l-119.083,19.84     c-5.803,0.96-9.749,6.464-8.768,12.267c0.875,5.227,5.397,8.917,10.496,8.917c0.576,0,1.195-0.043,1.771-0.149L224.853,448     h62.293l127.104,21.184c0.576,0.107,1.195,0.149,1.771,0.149c5.099,0,9.621-3.691,10.496-8.917     c0.981-5.803-2.965-11.307-8.768-12.267l-119.083-19.84v-22.976H480c17.643,0,32-14.357,32-32V74.667     C512,57.024,497.643,42.667,480,42.667z M277.333,426.667h-42.667v-21.333h42.667V426.667z M490.667,373.333     c0,5.888-4.8,10.667-10.667,10.667H32c-5.867,0-10.667-4.779-10.667-10.667V74.667C21.333,68.779,26.133,64,32,64h448     c5.867,0,10.667,4.779,10.667,10.667V373.333z" data-original="#000000" class="active-path" data-old_color="#000000" fill="#00AF80"/>
		</g>
	</g>
</g></g> </svg>
