<?xml version="1.0"?>
<svg xmlns="http://www.w3.org/2000/svg" width="512px" height="512px" viewBox="0 0 512 512"><g><g><path d="M472,56H40A32.036,32.036,0,0,0,8,88V360a32.036,32.036,0,0,0,32,32H204.9l-10.67,32H168a8,8,0,0,0-8,8v16H88a8,8,0,0,0,0,16H440a8,8,0,0,0,0-16H352V432a8,8,0,0,0-8-8H317.77L307.1,392H472a32.036,32.036,0,0,0,32-32V88A32.036,32.036,0,0,0,472,56ZM336,440v8H176v-8ZM211.1,424l10.67-32h68.46l10.67,32ZM488,360a16.021,16.021,0,0,1-16,16H40a16.021,16.021,0,0,1-16-16V344H488Zm0-32H24V88A16.021,16.021,0,0,1,40,72H472a16.021,16.021,0,0,1,16,16Z" data-original="#000000" class="active-path" data-old_color="#000000" fill="#00AF80"/><path d="M96,352H48a8,8,0,0,0,0,16H96a8,8,0,0,0,0-16Z" data-original="#000000" class="active-path" data-old_color="#000000" fill="#00AF80"/><path d="M128,352h-8a8,8,0,0,0,0,16h8a8,8,0,0,0,0-16Z" data-original="#000000" class="active-path" data-old_color="#000000" fill="#00AF80"/><path d="M40,320H168a8,8,0,0,0,8-8V136a8,8,0,0,0-8-8H40a8,8,0,0,0-8,8V312A8,8,0,0,0,40,320Zm8-176H160V304H48Z" data-original="#000000" class="active-path" data-old_color="#000000" fill="#00AF80"/><path d="M192,160H320a8,8,0,0,0,8-8V88a8,8,0,0,0-8-8H192a8,8,0,0,0-8,8v64A8,8,0,0,0,192,160Zm8-64H312v48H200Z" data-original="#000000" class="active-path" data-old_color="#000000" fill="#00AF80"/><path d="M192,224h64a8,8,0,0,0,8-8V176a8,8,0,0,0-8-8H192a8,8,0,0,0-8,8v40A8,8,0,0,0,192,224Zm8-40h48v24H200Z" data-original="#000000" class="active-path" data-old_color="#000000" fill="#00AF80"/><path d="M40,120H71a8,8,0,0,0,8-8V88a8,8,0,0,0-8-8H40a8,8,0,0,0-8,8v24A8,8,0,0,0,40,120Zm8-24H63v8H48Z" data-original="#000000" class="active-path" data-old_color="#000000" fill="#00AF80"/><path d="M96,96h72a8,8,0,0,0,0-16H96a8,8,0,0,0,0,16Z" data-original="#000000" class="active-path" data-old_color="#000000" fill="#00AF80"/><path d="M96,120h24a8,8,0,0,0,0-16H96a8,8,0,0,0,0,16Z" data-original="#000000" class="active-path" data-old_color="#000000" fill="#00AF80"/><path d="M144,104a8,8,0,0,0,0,16h8a8,8,0,0,0,0-16Z" data-original="#000000" class="active-path" data-old_color="#000000" fill="#00AF80"/><path d="M192,248H320a8,8,0,0,0,0-16H192a8,8,0,0,0,0,16Z" data-original="#000000" class="active-path" data-old_color="#000000" fill="#00AF80"/><path d="M192,296H320a8,8,0,0,0,0-16H192a8,8,0,0,0,0,16Z" data-original="#000000" class="active-path" data-old_color="#000000" fill="#00AF80"/><path d="M192,272h96a8,8,0,0,0,0-16H192a8,8,0,0,0,0,16Z" data-original="#000000" class="active-path" data-old_color="#000000" fill="#00AF80"/><path d="M320,256h-8a8,8,0,0,0,0,16h8a8,8,0,0,0,0-16Z" data-original="#000000" class="active-path" data-old_color="#000000" fill="#00AF80"/><path d="M192,320h96a8,8,0,0,0,0-16H192a8,8,0,0,0,0,16Z" data-original="#000000" class="active-path" data-old_color="#000000" fill="#00AF80"/><path d="M320,304h-8a8,8,0,0,0,0,16h8a8,8,0,0,0,0-16Z" data-original="#000000" class="active-path" data-old_color="#000000" fill="#00AF80"/><path d="M320,168H280a8,8,0,0,0-8,8v40a8,8,0,0,0,8,8h40a8,8,0,0,0,8-8V176A8,8,0,0,0,320,168Zm-8,40H288V184h24Z" data-original="#000000" class="active-path" data-old_color="#000000" fill="#00AF80"/><path d="M344,200H472a8,8,0,0,0,8-8V88a8,8,0,0,0-8-8H344a8,8,0,0,0-8,8V192A8,8,0,0,0,344,200Zm8-104H464v88H352Z" data-original="#000000" class="active-path" data-old_color="#000000" fill="#00AF80"/><path d="M344,320H472a8,8,0,0,0,8-8V288a8,8,0,0,0-8-8H344a8,8,0,0,0-8,8v24A8,8,0,0,0,344,320Zm8-24H464v8H352Z" data-original="#000000" class="active-path" data-old_color="#000000" fill="#00AF80"/><path d="M344,224H472a8,8,0,0,0,0-16H344a8,8,0,0,0,0,16Z" data-original="#000000" class="active-path" data-old_color="#000000" fill="#00AF80"/><path d="M344,248H472a8,8,0,0,0,0-16H344a8,8,0,0,0,0,16Z" data-original="#000000" class="active-path" data-old_color="#000000" fill="#00AF80"/><path d="M344,272h96a8,8,0,0,0,0-16H344a8,8,0,0,0,0,16Z" data-original="#000000" class="active-path" data-old_color="#000000" fill="#00AF80"/><path d="M472,256h-8a8,8,0,0,0,0,16h8a8,8,0,0,0,0-16Z" data-original="#000000" class="active-path" data-old_color="#000000" fill="#00AF80"/></g></g> </svg>
